<svg width="24.000000" height="24.000000" viewBox="0 0 24 24" fill="none" xmlns="http://www.w3.org/2000/svg" xmlns:xlink="http://www.w3.org/1999/xlink">
	<desc>
			Created with Pixso.
	</desc>
	<defs>
		<clipPath id="clip9_1505">
			<rect id="Frame" rx="-0.500000" width="23.000000" height="23.000000" transform="translate(0.500000 0.500000)" fill="white" fill-opacity="0"/>
		</clipPath>
	</defs>
	<rect id="Frame" rx="-0.500000" width="23.000000" height="23.000000" transform="translate(0.500000 0.500000)" fill="#FFFFFF" fill-opacity="0"/>
	<g clip-path="url(#clip9_1505)">
		<path id="Vector" d="M16.5 3C19.53 3 22 5.5 22 9C22 16 14.5 20 12 21.5C9.5 20 2 16 2 9C2 5.5 4.5 3 7.5 3C9.35 3 11 4 12 5C13 4 14.64 3 16.5 3ZM12.93 18.6C13.81 18.04 14.6 17.49 15.35 16.9C18.33 14.53 20 11.94 20 9C20 6.64 18.46 5 16.5 5C15.42 5 14.25 5.56 13.41 6.41L12 7.82L10.58 6.41C9.74 5.56 8.57 5 7.5 5C5.55 5 4 6.65 4 9C4 11.94 5.66 14.53 8.64 16.9C9.39 17.49 10.18 18.04 11.06 18.6C11.36 18.79 11.66 18.97 12 19.17C12.33 18.97 12.63 18.79 12.93 18.6Z" fill="#FFFFFF" fill-opacity="1.000000" fill-rule="nonzero"/>
	</g>
</svg>
