<svg width="24.000000" height="24.000000" viewBox="0 0 24 24"  xmlns="http://www.w3.org/2000/svg" xmlns:xlink="http://www.w3.org/1999/xlink">
	<desc>
			Created with Pixso.
	</desc>
	<defs>
		<clipPath id="clip9_1989">
			<rect id="icon / mail" rx="-0.500000" width="23.000000" height="23.000000" transform="translate(0.500000 0.500000)"  fill-opacity="0"/>
		</clipPath>
	</defs>
	<rect id="icon / mail" rx="-0.500000" width="23.000000" height="23.000000" transform="translate(0.500000 0.500000)"  fill-opacity="0"/>
	<g clip-path="url(#clip9_1989)">
		<path id="Vector" d="M21 3C21.55 3 22 3.44 22 4L22 20C22 20.55 21.54 21 21 21L2.99 21C2.44 21 2 20.55 2 20L2 19L20 19L20 7.3L12 14.5L2 5.5L2 4C2 3.44 2.44 3 3 3L21 3ZM8 15L8 17L0 17L0 15L8 15ZM5 10L5 12L0 12L0 10L5 10ZM19.56 5L4.43 5L12 11.8L19.56 5Z"  fill-opacity="1.000000" fill-rule="nonzero"/>
	</g>
</svg>
