<svg width="24.000000" height="24.000000" viewBox="0 0 24 24" fill="none" xmlns="http://www.w3.org/2000/svg" xmlns:xlink="http://www.w3.org/1999/xlink">
	<desc>
			Created with Pixso.
	</desc>
	<defs>
		<clipPath id="clip9_1256">
			<rect id="icon / genres" rx="0.000000" width="23.000000" height="23.000000" transform="translate(0.500000 0.500000)" fill="white" fill-opacity="0"/>
		</clipPath>
	</defs>
	<rect id="icon / genres" rx="0.000000" width="23.000000" height="23.000000" transform="translate(0.500000 0.500000)" fill="#FFFFFF" fill-opacity="0"/>
	<g clip-path="url(#clip9_1256)">
		<path id="Vector" d="M7 11.5C4.51 11.5 2.5 9.48 2.5 7C2.5 4.51 4.51 2.5 7 2.5C9.48 2.5 11.5 4.51 11.5 7C11.5 9.48 9.48 11.5 7 11.5ZM7 21.5C4.51 21.5 2.5 19.48 2.5 17C2.5 14.51 4.51 12.5 7 12.5C9.48 12.5 11.5 14.51 11.5 17C11.5 19.48 9.48 21.5 7 21.5ZM17 11.5C14.51 11.5 12.5 9.48 12.5 7C12.5 4.51 14.51 2.5 17 2.5C19.48 2.5 21.5 4.51 21.5 7C21.5 9.48 19.48 11.5 17 11.5ZM17 21.5C14.51 21.5 12.5 19.48 12.5 17C12.5 14.51 14.51 12.5 17 12.5C19.48 12.5 21.5 14.51 21.5 17C21.5 19.48 19.48 21.5 17 21.5ZM7 9.5C8.38 9.5 9.5 8.38 9.5 7C9.5 5.61 8.38 4.5 7 4.5C5.61 4.5 4.5 5.61 4.5 7C4.5 8.38 5.61 9.5 7 9.5ZM7 19.5C8.38 19.5 9.5 18.38 9.5 17C9.5 15.61 8.38 14.5 7 14.5C5.61 14.5 4.5 15.61 4.5 17C4.5 18.38 5.61 19.5 7 19.5ZM17 9.5C18.38 9.5 19.5 8.38 19.5 7C19.5 5.61 18.38 4.5 17 4.5C15.61 4.5 14.5 5.61 14.5 7C14.5 8.38 15.61 9.5 17 9.5ZM17 19.5C18.38 19.5 19.5 18.38 19.5 17C19.5 15.61 18.38 14.5 17 14.5C15.61 14.5 14.5 15.61 14.5 17C14.5 18.38 15.61 19.5 17 19.5Z" fill="#FFFFFF" fill-opacity="1.000000" fill-rule="nonzero"/>
	</g>
</svg>
