<svg width="36.000000" height="36.000000" viewBox="0 0 36 36" fill="none" xmlns="http://www.w3.org/2000/svg" xmlns:xlink="http://www.w3.org/1999/xlink">
	<desc>
			Created with Pixso.
	</desc>
	<defs/>
	<path id="Shape" d="M8.59 17.85C10.28 16.93 12.16 16.15 13.91 15.37C16.93 14.1 19.97 12.85 23.03 11.68C23.63 11.48 24.7 11.29 24.8 12.17C24.74 13.42 24.51 14.67 24.34 15.91C23.93 18.64 23.46 21.37 22.99 24.09C22.83 25 21.7 25.47 20.97 24.89C19.22 23.71 17.46 22.54 15.74 21.33C15.17 20.75 15.69 19.93 16.2 19.52C17.64 18.1 19.16 16.9 20.53 15.4C20.9 14.51 19.81 15.26 19.45 15.49C17.48 16.85 15.56 18.29 13.48 19.49C12.42 20.07 11.18 19.57 10.12 19.25C9.17 18.85 7.77 18.45 8.59 17.85L8.59 17.85Z" fill="#FFFFFF" fill-opacity="0.800000" fill-rule="nonzero"/>
	<rect id="telegram" rx="7.500000" width="35.000000" height="35.000000" transform="translate(0.500000 0.500000)" stroke="#FFFFFF" stroke-opacity="0.800000" stroke-width="1.000000"/>
</svg>
