<svg width="36.000000" height="36.000000" viewBox="0 0 36 36" fill="none" xmlns="http://www.w3.org/2000/svg" xmlns:xlink="http://www.w3.org/1999/xlink">
	<desc>
			Created with Pixso.
	</desc>
	<defs/>
	<path id="Path" d="M26.48 14.37C26.62 13.98 26.48 13.69 25.87 13.69L23.83 13.69C23.31 13.69 23.07 13.94 22.93 14.21C22.93 14.21 21.88 16.51 20.41 18C19.94 18.43 19.72 18.57 19.46 18.57C19.33 18.57 19.15 18.43 19.15 18.03L19.15 14.36C19.15 13.89 18.99 13.68 18.55 13.68L15.34 13.68C15.02 13.68 14.82 13.89 14.82 14.11C14.82 14.55 15.56 14.66 15.64 15.92L15.64 18.64C15.64 19.24 15.52 19.34 15.26 19.34C14.57 19.34 12.88 17.03 11.87 14.39C11.67 13.87 11.47 13.68 10.96 13.68L8.9 13.68C8.3 13.68 8.2 13.93 8.2 14.2C8.2 14.68 8.9 17.12 11.43 20.35C13.12 22.55 15.52 23.74 17.68 23.74C18.99 23.74 19.15 23.47 19.15 23.02L19.15 21.35C19.15 20.81 19.26 20.72 19.68 20.72C19.98 20.72 20.51 20.87 21.72 21.93C23.11 23.18 23.35 23.76 24.12 23.76L26.16 23.76C26.76 23.76 27.04 23.49 26.88 22.97C26.7 22.45 26.03 21.69 25.15 20.8C24.68 20.29 23.96 19.74 23.75 19.47C23.45 19.11 23.53 18.97 23.75 18.64C23.73 18.64 26.22 15.45 26.48 14.37Z" fill="#FFFFFF" fill-opacity="0.800000" fill-rule="evenodd"/>
	<rect id="vk" rx="7.500000" width="35.000000" height="35.000000" transform="translate(0.500000 0.500000)" stroke="#FFFFFF" stroke-opacity="0.800000" stroke-width="1.000000"/>
</svg>
