<svg width="36.000000" height="36.000000" viewBox="0 0 36 36" fill="none" xmlns="http://www.w3.org/2000/svg" xmlns:xlink="http://www.w3.org/1999/xlink">
	<desc>
			Created with Pixso.
	</desc>
	<defs/>
	<path id="Subtract" d="M25.3594 14.4438C25.1836 13.7654 24.6621 13.231 24.002 13.0496C22.8027 12.72 18 12.72 18 12.72C18 12.72 13.1973 12.72 12 13.0496C11.3379 13.231 10.8184 13.7654 10.6406 14.4438C10.3203 15.6738 10.3203 18.24 10.3203 18.24C10.3203 18.24 10.3203 20.8062 10.6406 22.0361C10.8184 22.7146 11.3379 23.249 12 23.4304C13.1973 23.76 18 23.76 18 23.76C18 23.76 22.8027 23.76 24.002 23.4304C24.6621 23.249 25.1836 22.7146 25.3594 22.0361C25.6797 20.8062 25.6797 18.24 25.6797 18.24C25.6797 18.24 25.6797 15.6738 25.3594 14.4438ZM16.5605 16.0803L16.5605 20.8801L20.4004 18.4802L16.5605 16.0803Z" clip-rule="evenodd" fill="#FFFFFF" fill-opacity="0.800000" fill-rule="evenodd"/>
	<rect id="youtube" rx="7.500000" width="35.000000" height="35.000000" transform="translate(0.500000 0.500000)" stroke="#FFFFFF" stroke-opacity="0.800000" stroke-width="1.000000"/>
</svg>
