<svg  viewBox="0 0 36 36" fill="none" xmlns="http://www.w3.org/2000/svg" xmlns:xlink="http://www.w3.org/1999/xlink">
	<desc>
			Created with Pixso.
	</desc>
	<defs/>
	<path id="Shape" d="M19.91 22.26L22.57 24.82C23.11 25.34 23.11 26.19 22.57 26.72C22.02 27.24 21.14 27.24 20.6 26.72L17.99 24.2L15.39 26.72C15.11 26.98 14.76 27.11 14.4 27.11C14.05 27.11 13.69 26.98 13.42 26.72C12.88 26.19 12.88 25.34 13.42 24.82L16.07 22.26C15.11 22.04 14.17 21.68 13.32 21.16C12.67 20.76 12.47 19.93 12.88 19.3C13.29 18.68 14.15 18.49 14.8 18.88C16.74 20.06 19.25 20.06 21.19 18.88C21.84 18.49 22.7 18.68 23.11 19.3C23.51 19.93 23.32 20.76 22.67 21.16C21.81 21.68 20.88 22.04 19.91 22.26Z" fill="#FFFFFF" fill-opacity="0.800000" fill-rule="nonzero"/>
	<path id="Combined Shape" d="M13.2402 13.9419C13.2402 16.468 15.3691 18.5227 17.9863 18.5227C20.6055 18.5227 22.7324 16.468 22.7324 13.9419C22.7324 11.415 20.6055 9.35986 17.9863 9.35986C15.3691 9.35986 13.2402 11.415 13.2402 13.9419ZM19.9512 13.9414C19.9512 12.8953 19.0703 12.0447 17.9863 12.0447C16.9043 12.0447 16.0215 12.8953 16.0215 13.9414C16.0215 14.9868 16.9043 15.8379 17.9863 15.8379C19.0703 15.8379 19.9512 14.9868 19.9512 13.9414Z" clip-rule="evenodd" fill="#FFFFFF" fill-opacity="0.800000" fill-rule="evenodd"/>
	<rect id="ok" rx="7.500000" width="35.000000" height="35.000000" transform="translate(0.500000 0.500000)" stroke="#FFFFFF" stroke-opacity="0.800000" stroke-width="1.000000"/>
</svg>
