<svg width="24.000000" height="24.000000" viewBox="0 0 24 24" fill="none" xmlns="http://www.w3.org/2000/svg" xmlns:xlink="http://www.w3.org/1999/xlink">
	<desc>
			Created with Pixso.
	</desc>
	<defs>
		<clipPath id="clip9_1420">
			<rect id="Frame" rx="-0.500000" width="23.000000" height="23.000000" transform="translate(0.500000 0.500000)" fill="white" fill-opacity="0"/>
		</clipPath>
	</defs>
	<rect id="Frame" rx="-0.500000" width="23.000000" height="23.000000" transform="translate(0.500000 0.500000)" fill="#FFFFFF" fill-opacity="0"/>
	<g clip-path="url(#clip9_1420)">
		<path id="Vector" d="M12 4C14.74 4 17.17 5.38 18.61 7.5L16 7.5L16 9.5L22 9.5L22 3.5L20 3.5L20 5.99C18.17 3.57 15.27 2 12 2C6.47 2 2 6.47 2 12L4 12C4 7.58 7.58 4 12 4ZM20 12C20 16.41 16.41 20 12 20C9.25 20 6.82 18.61 5.38 16.5L8 16.5L8 14.5L2 14.5L2 20.5L4 20.5L4 18C5.82 20.42 8.72 22 12 22C17.52 22 22 17.52 22 12L20 12Z" fill="#FFFFFF" fill-opacity="1.000000" fill-rule="nonzero"/>
	</g>
</svg>
