<svg width="20.000000" height="20.000000" viewBox="0 0 20 20" fill="none" xmlns="http://www.w3.org/2000/svg" xmlns:xlink="http://www.w3.org/1999/xlink">
	<desc>
			Created with Pixso.
	</desc>
	<defs/>
	<path id="Vector" d="M14.28 7.42C13.41 5.97 11.82 5 10 5C7.24 5 5 7.23 5 10C5 12.76 7.24 15 10 15C11.82 15 13.41 14.02 14.28 12.57L12.57 11.54C12.04 12.41 11.09 13 10 13C8.34 13 7 11.65 7 10C7 8.34 8.34 7 10 7C11.09 7 12.04 7.58 12.57 8.45L14.28 7.42ZM20 10C20 4.47 15.51 0 10 0C4.48 0 0 4.47 0 10C0 15.52 4.48 20 10 20C15.51 20 20 15.52 20 10ZM2 10C2 5.58 5.58 2 10 2C14.41 2 18 5.58 18 10C18 14.41 14.41 18 10 18C5.58 18 2 14.41 2 10Z" fill="#FFFFFF" fill-opacity="0.700000" fill-rule="nonzero"/>
</svg>
